# xmcd
#
# Track frame offsets: 
#        187
#        14677
#        27662
#        47320
#        61392
#        69865
#        80250
#        92612
#        114330
#        129332
#        140940
#        164265
#        178510
#        199610
#        206600
#
# Disc length: 2992 seconds
#
# Revision: 4
# Processed by: cddbd v1.5.2PL0 Copyright (c) Steve Scherf et al.
# Submitted via: ExactAudioCopy v0.95a5
#
DISCID=c80bae0f
DTITLE=Kaiser_Mansfield - Trimmed and Burnin'
DYEAR=1990
DGENRE=Blues
TTITLE0=Great Change Since I've Been Born
TTITLE1=Keep Your Lamp Trimmed and Burnin'
TTITLE2=Shaky Ground
TTITLE3=Nobody's Fault But Mine
TTITLE4=Go Tell Pharaoh
TTITLE5=You Got To Move
TTITLE6=In the Light of the Morning Star
TTITLE7=Celestial Shore
TTITLE8=Jesus is Comin' Soon
TTITLE9=God Don't Never Change
TTITLE10=What You Did
TTITLE11=I Belong to the Band
TTITLE12=You Got To Die
TTITLE13=Cornerstone
TTITLE14=We Shall See the King
EXTD=YEAR: 1990
EXTT0=
EXTT1=
EXTT2=
EXTT3=
EXTT4=
EXTT5=
EXTT6=
EXTT7=
EXTT8=
EXTT9=
EXTT10=
EXTT11=
EXTT12=
EXTT13=
EXTT14=
PLAYORDER=
